<?xml version="1.0" encoding="UTF-8" standalone="no"?>
<svg width="42px" height="48px" viewBox="0 0 42 48" version="1.1" xmlns="http://www.w3.org/2000/svg" xmlns:xlink="http://www.w3.org/1999/xlink">
    <g id="Page-1" stroke="none" stroke-width="1" fill="none" fill-rule="evenodd">
        <g id="-登录" transform="translate(-418.000000, -343.000000)" fill="#2188F3">
            <path d="M427.333367,355.571327 C427.333367,349.770684 432.427538,345.285664 438.766698,345.285664 L438.766698,343 L438.649925,343 L438.649925,345.285664 C444.881566,345.285664 449.616651,349.676974 449.616651,355.571327 L449.616651,357.856991 L451.95016,357.856991 L451.95016,355.571327 C451.95016,348.385579 446.142506,343 438.649925,343 L438.649925,345.285664 L438.766698,345.285664 L438.766698,343 C431.191073,343 425.000101,348.450561 425.000101,355.571327 L425.000101,361.285723 L427.333367,361.285723 L427.333367,355.571327 Z M446.000041,373.857109 C446.000041,370.069942 442.866047,366.999882 439,366.999882 C435.133953,366.999882 431.999899,370.069942 431.999899,373.857109 C431.999899,377.644216 435.133953,380.714277 439,380.714277 C442.866047,380.714277 446.000041,377.644216 446.000041,373.857109 Z M434.333408,373.857109 C434.333408,371.33243 436.422717,369.285782 439,369.285782 C441.577283,369.285782 443.666775,371.33243 443.666775,373.857109 C443.666775,376.381788 441.577283,378.428614 439,378.428614 C436.422717,378.428614 434.333408,376.381788 434.333408,373.857109 Z M437.833489,384.142773 L440.166755,384.142773 L440.166755,379.571445 L437.833489,379.571445 L437.833489,384.142773 Z M426.166613,388.714336 C422.96096,388.714336 420.333266,386.140137 420.333266,382.999941 L420.333266,368.142713 C420.333266,365.002518 422.96096,362.428555 426.166613,362.428555 L451.833387,362.428555 C455.038979,362.428555 457.666673,365.002518 457.666673,368.142713 L457.666673,382.999941 C457.666673,386.140137 455.038979,388.714336 451.833387,388.714336 L426.166613,388.714336 Z M460,382.999941 L460,368.142713 C460,363.740326 456.327743,360.142891 451.833387,360.142891 L426.166613,360.142891 C421.672196,360.142891 418,363.740326 418,368.142713 L418,382.999941 C418,387.402624 421.672196,391 426.166613,391 L451.833387,391 C456.327743,391 460,387.402624 460,382.999941 Z" id="密码"></path>
        </g>
    </g>
</svg>