<?xml version="1.0" encoding="UTF-8" standalone="no"?>
<svg width="42px" height="48px" viewBox="0 0 42 48" version="1.1" xmlns="http://www.w3.org/2000/svg" xmlns:xlink="http://www.w3.org/1999/xlink">
    <g id="Page-1" stroke="none" stroke-width="1" fill="none" fill-rule="evenodd">
        <g id="-登录" transform="translate(-418.000000, -240.000000)" fill="#2188F3">
            <path d="M453.847661,271.921439 C453.391626,271.463801 452.653606,271.463801 452.197811,271.921439 C451.743512,272.3786 451.743512,273.121157 452.199247,273.578318 C455.725049,277.118148 457.666577,281.823917 457.666577,286.82875 C457.666577,287.476175 458.188426,288 458.833288,288 C459.47833,288 460,287.476175 460,286.82875 C460,281.198216 457.814959,275.903808 453.847661,271.921439 Z M439.00009,240 C431.27975,240 425.00003,246.304338 425.00003,254.054522 C425.00003,259.582761 428.195623,264.374293 432.829322,266.668331 C429.586702,267.663998 426.615955,269.4477 424.151202,271.922394 C420.184084,275.903808 418,281.198455 418,286.829228 C418,287.476414 418.52167,288 419.166712,288 C419.811514,288 420.333423,287.476175 420.333423,286.829228 C420.333423,281.823917 422.274891,277.118626 425.801232,273.578318 C429.199234,270.165967 433.679107,268.232823 438.465138,268.097883 C438.642777,268.104627 438.820835,268.109043 438.99985,268.109043 C446.72025,268.109043 452.99997,261.804705 452.99997,254.054522 C452.99997,246.304338 446.72025,240 439.00009,240 Z M439.188738,265.764216 C439.125616,265.753294 439.061836,265.747684 438.997756,265.747206 C438.820596,265.747206 438.643674,265.749534 438.467232,265.75395 C432.281207,265.473268 427.333453,260.333197 427.333453,254.054522 C427.333453,247.596563 432.567321,242.3425 439.00009,242.3425 C445.432679,242.3425 450.666726,247.596802 450.666726,254.054522 C450.666726,260.44886 445.534333,265.662578 439.188738,265.764216 Z" id="用户"></path>
        </g>
    </g>
</svg>