<?xml version="1.0" encoding="UTF-8" standalone="no"?>
<svg width="20px" height="40px" viewBox="0 0 20 40" version="1.1" xmlns="http://www.w3.org/2000/svg" xmlns:xlink="http://www.w3.org/1999/xlink">
    <g id="Page-1" stroke="none" stroke-width="1" fill="none" fill-rule="evenodd">
        <g id="查看详情" transform="translate(-928.000000, -618.000000)" fill="#187CE3">
            <g id="人脸照片" transform="translate(210.000000, 478.000000)">
                <path d="M718.219158,160.92891 C717.827073,159.977386 717.95545,158.813197 718.649765,158.048029 L734.390776,140.681677 C735.249154,139.735223 736.602283,139.780211 737.415139,140.779925 C738.226486,141.781133 738.18929,143.359499 737.330912,144.307661 L723.20715,159.892587 L737.275187,175.708803 C738.125056,176.665344 738.150768,178.24371 737.330912,179.23654 C736.911651,179.745655 736.351385,180 735.790891,180 C735.256291,180 734.721509,179.767269 734.306594,179.30154 L718.708281,161.765376 C718.678268,161.730635 718.666922,161.682338 718.636909,161.645889 C718.614034,161.6207 718.589923,161.602502 718.567094,161.575818 C718.445854,161.427833 718.381665,161.246601 718.298993,161.076842 C718.276209,161.02529 718.239105,160.98217 718.219158,160.92891 Z" id="el-icon-arrow-right" transform="translate(728.000000, 160.000000) scale(-1, 1) translate(-728.000000, -160.000000) "></path>
            </g>
        </g>
    </g>
</svg>