<?xml version="1.0" encoding="UTF-8" standalone="no"?>
<svg width="44px" height="44px" viewBox="0 0 44 44" version="1.1" xmlns="http://www.w3.org/2000/svg" xmlns:xlink="http://www.w3.org/1999/xlink">
    <defs>
        <polygon id="path-1" points="0.00361715564 0.0305649652 0.00361715564 43.2249496 43.1943847 43.2249496 43.1943847 0.0305649652"></polygon>
    </defs>
    <g id="Page-1" stroke="none" stroke-width="1" fill="none" fill-rule="evenodd">
        <g id="搜索（上传中）" transform="translate(-934.000000, -403.000000)">
            <g id="-下排" transform="translate(360.000000, 335.000000)">
                <g id="添加副本" transform="translate(574.000000, 68.000000)">
                    <mask id="mask-2" fill="white">
                        <use xlink:href="#path-1"></use>
                    </mask>
                    <g id="Clip-2"></g>
                    <path d="M23.9121117,23.9426766 L40.8795256,23.9426766 C42.1580093,23.9426766 43.1943847,22.906241 43.1943847,21.6277573 C43.1943847,20.3492736 42.1580093,19.3128983 40.8795256,19.3128983 L23.9121117,19.3128983 L23.9121117,2.34548429 C23.9121117,1.06700063 22.875676,0.0305649652 21.5971923,0.0305649652 C20.3187087,0.0305649652 19.2823333,1.06700063 19.2823333,2.34548429 L19.2823333,19.3128983 L2.31485904,19.3128983 C1.03637538,19.3128983 0,20.3492736 0,21.6277573 C0,22.906241 1.03637538,23.9426766 2.31485904,23.9426766 L19.2823333,23.9426766 L19.2823333,40.9100906 C19.2823333,42.1885743 20.3187087,43.2249496 21.5971923,43.2249496 C22.875676,43.2249496 23.9121117,42.1885743 23.9121117,40.9100906 L23.9121117,23.9426766 Z" id="Fill-1" fill="#187CE3" mask="url(#mask-2)"></path>
                </g>
            </g>
        </g>
    </g>
</svg>