<?xml version="1.0" encoding="UTF-8" standalone="no"?>
<svg width="20px" height="20px" viewBox="0 0 20 20" version="1.1" xmlns="http://www.w3.org/2000/svg" xmlns:xlink="http://www.w3.org/1999/xlink">
    <g id="Page-1" stroke="none" stroke-width="1" fill="none" fill-rule="evenodd">
        <g id="搜索（上传完）" transform="translate(-1234.000000, -319.000000)" fill="#FAAF2E">
            <g id="列表" transform="translate(520.000000, 304.000000)">
                <path d="M733.890421,25.4644551 C733.880447,25.491085 733.861895,25.512645 733.850503,25.538421 C733.809167,25.6233004 733.777073,25.7139166 733.716453,25.7879092 C733.705038,25.8012508 733.692983,25.8103498 733.681545,25.8229443 C733.666539,25.841169 733.660866,25.8653173 733.64586,25.8826881 L725.846703,34.6507699 C725.639245,34.8836345 725.371854,35 725.104555,35 C724.824308,35 724.544175,34.8728277 724.334544,34.6182698 C723.924616,34.121855 723.937472,33.3326718 724.362406,32.8544017 L731.396425,24.9462935 L724.334544,17.1538305 C723.905355,16.6797496 723.886757,15.8905665 724.29243,15.3899624 C724.698859,14.8901055 725.375423,14.8676116 725.804612,15.3408386 L733.675117,24.0240144 C734.022275,24.4065986 734.086464,24.9886932 733.890421,25.4644551 Z M723.890421,25.4644551 C723.880447,25.491085 723.861895,25.512645 723.850503,25.538421 C723.809167,25.6233004 723.777073,25.7139166 723.716453,25.7879092 C723.705038,25.8012508 723.692983,25.8103498 723.681545,25.8229443 C723.666539,25.841169 723.660866,25.8653173 723.64586,25.8826881 L715.846703,34.6507699 C715.639245,34.8836345 715.371854,35 715.104555,35 C714.824308,35 714.544175,34.8728277 714.334544,34.6182698 C713.924616,34.121855 713.937472,33.3326718 714.362406,32.8544017 L721.396425,24.9462935 L714.334544,17.1538305 C713.905355,16.6797496 713.886757,15.8905665 714.29243,15.3899624 C714.698859,14.8901055 715.375423,14.8676116 715.804612,15.3408386 L723.675117,24.0240144 C724.022275,24.4065986 724.086464,24.9886932 723.890421,25.4644551 Z" id="el-icon-d-arrow-right"></path>
            </g>
        </g>
    </g>
</svg>