<?xml version="1.0" encoding="UTF-8" standalone="no"?>
<svg width="20px" height="40px" viewBox="0 0 20 40" version="1.1" xmlns="http://www.w3.org/2000/svg" xmlns:xlink="http://www.w3.org/1999/xlink">
    <g id="Page-1" stroke="none" stroke-width="1" fill="none" fill-rule="evenodd">
        <g id="查看详情" transform="translate(-230.000000, -618.000000)" fill="#153F76">
            <g id="人脸照片" transform="translate(210.000000, 478.000000)">
                <path d="M20.219158,160.92891 C19.8270727,159.977386 19.9554498,158.813197 20.6497655,158.048029 L36.3907757,140.681677 C37.2491542,139.735223 38.6022829,139.780211 39.4151392,140.779925 C40.2264857,141.781133 40.1892902,143.359499 39.3309118,144.307661 L25.2071503,159.892587 L39.2751872,175.708803 C40.125056,176.665344 40.150768,178.24371 39.3309118,179.23654 C38.9116505,179.745655 38.351385,180 37.7908906,180 C37.2562913,180 36.721509,179.767269 36.3065941,179.30154 L20.7082809,161.765376 C20.6782683,161.730635 20.666922,161.682338 20.6369094,161.645889 C20.614034,161.6207 20.5899233,161.602502 20.5670936,161.575818 C20.4458537,161.427833 20.3816651,161.246601 20.2989933,161.076842 C20.2762093,161.02529 20.2391053,160.98217 20.219158,160.92891 Z" id="el-icon-arrow-left"></path>
            </g>
        </g>
    </g>
</svg>