<?xml version="1.0" encoding="UTF-8" standalone="no"?>
<svg width="20px" height="20px" viewBox="0 0 20 20" version="1.1" xmlns="http://www.w3.org/2000/svg" xmlns:xlink="http://www.w3.org/1999/xlink">
    <g id="Page-1" stroke="none" stroke-width="1" fill="none" fill-rule="evenodd">
        <g id="搜索（上传完）" transform="translate(-1306.000000, -319.000000)" fill="#FA2222">
            <g id="列表" transform="translate(520.000000, 304.000000)">
                <g id="回收站" transform="translate(786.000000, 15.000000)">
                    <path d="M11.6824713,15.1941586 C11.3845532,15.1941586 11.1398339,14.8962406 11.1398339,14.5131994 L11.1398339,7.06540378 C11.1398339,6.6930127 11.3845532,6.38447048 11.6718212,6.38447048 C11.9697392,6.38447048 12.2144845,6.68236257 12.2144845,7.06540378 L12.2144845,14.5238495 C12.2144845,14.8962406 11.9803893,15.1941586 11.6824713,15.1941586 Z M18.7791761,3.49038708 L15.2999327,3.49038708 L15.2999327,2.09659606 C15.2999327,0.947472418 14.374332,0.0112216062 13.2252084,0.0112216062 L6.25614934,0.0112216062 C5.10710362,0.0112216062 4.17074891,0.947472418 4.17074891,2.09659606 L4.17074891,3.49038708 L0.691609407,3.49038708 C0.308568193,3.49038708 0,3.7989293 0,4.18199649 C0,4.5650377 0.308568193,4.8736059 0.691609407,4.8736059 L18.7791761,4.8736059 C19.1622173,4.8736059 19.4706816,4.5650377 19.4706816,4.18199649 C19.4706816,3.7989293 19.1622173,3.49038708 18.7791761,3.49038708 Z M5.56464383,2.09659606 C5.56464383,1.71355485 5.87310812,1.40498665 6.25614934,1.40498665 L13.2252084,1.40498665 C13.6082496,1.40498665 13.9061676,1.71355485 13.9061676,2.09659606 L13.9061676,3.49038708 L5.56464383,3.49038708 L5.56464383,2.09659606 Z M7.71384117,15.1941586 C7.41592312,15.1941586 7.17117781,14.8962406 7.17117781,14.5131994 L7.17117781,7.06540378 C7.17117781,6.6930127 7.41592312,6.38447048 7.70319104,6.38447048 C8.0011091,6.38447048 8.24582843,6.68236257 8.24582843,7.06540378 L8.24582843,14.5238495 C8.25640064,14.8962406 8.01175923,15.1941586 7.71384117,15.1941586 Z" id="Fill-1"></path>
                    <path d="M14.6083233,19.4819032 L4.87303443,19.4819032 C3.72388481,19.4819032 2.787634,18.5456524 2.787634,17.3965287 L2.787634,6.95898035 C2.787634,6.57593914 3.09620219,6.26737094 3.47916548,6.26737094 C3.86220669,6.26737094 4.17074891,6.57593914 4.17074891,6.95898035 L4.17074891,17.3965287 C4.17074891,17.7795699 4.4793171,18.0881381 4.86238429,18.0881381 L14.597777,18.0881381 C14.9808182,18.0881381 15.2892825,17.7795699 15.2892825,17.3965287 L15.2892825,6.98028062 C15.2892825,6.59723941 15.5978507,6.28867122 15.9808919,6.28867122 C16.3639332,6.28867122 16.6725014,6.59723941 16.6725014,6.98028062 L16.6725014,17.3965287 C16.6938016,18.5456524 15.7574469,19.4819032 14.6083233,19.4819032 Z" id="Fill-2"></path>
                </g>
            </g>
        </g>
    </g>
</svg>