<?xml version="1.0" encoding="UTF-8" standalone="no"?>
<svg width="20px" height="20px" viewBox="0 0 20 20" version="1.1" xmlns="http://www.w3.org/2000/svg" xmlns:xlink="http://www.w3.org/1999/xlink">
    <defs>
        <polygon id="path-1" points="0.00155973876 0.0240319136 0.00155973876 19.7185176 19.7117314 19.7185176 19.7117314 0.0240319136"></polygon>
    </defs>
    <g id="Page-1" stroke="none" stroke-width="1" fill="none" fill-rule="evenodd">
        <g id="搜索（上传完）" transform="translate(-1270.000000, -319.000000)">
            <g id="列表" transform="translate(520.000000, 304.000000)">
                <g id="编辑" transform="translate(750.000000, 15.000000)">
                    <mask id="mask-2" fill="white">
                        <use xlink:href="#path-1"></use>
                    </mask>
                    <g id="Clip-2"></g>
                    <path d="M10.4881253,9.3927383 C10.2964074,9.3927383 10.1047935,9.32277181 9.95573449,9.18281444 C9.66824864,8.91295417 9.66824864,8.46308944 9.95573449,8.1832235 L18.4314329,0.226445419 C18.7188927,-0.0434392549 19.1979925,-0.0434392549 19.4961365,0.226445419 C19.7835964,0.496403305 19.7835964,0.946170422 19.4961365,1.22606077 L11.0205421,9.18281444 C10.8714571,9.32277181 10.6797392,9.3927383 10.4881253,9.3927383 Z" id="Fill-1" fill="#2EFAF7" mask="url(#mask-2)"></path>
                    <path d="M15.8759309,19.7185176 L1.3522935,19.7185176 C0.606946341,19.7185176 0,19.1487557 0,18.449042 L0,2.69543017 C0,1.99574091 0.606946341,1.42595455 1.3522935,1.42595455 L8.6140992,1.42595455 C9.02932766,1.42595455 9.35944636,1.74586758 9.35944636,2.12566821 C9.35944636,2.50554206 9.01866944,2.82538187 8.6140992,2.82538187 L1.50135253,2.82538187 L1.50135253,18.3190903 L15.7375301,18.3190903 L15.7375301,10.5722361 C15.7375301,10.1824298 16.078203,9.87252243 16.4828512,9.87252243 C16.8874215,9.87252243 17.2281984,10.1923622 17.2281984,10.5722361 L17.2281984,18.449042 C17.2387786,19.1487557 16.6319363,19.7185176 15.8759309,19.7185176 Z" id="Fill-3" fill="#2EFAF7" mask="url(#mask-2)"></path>
                </g>
            </g>
        </g>
    </g>
</svg>