<?xml version="1.0" encoding="UTF-8" standalone="no"?>
<svg width="30px" height="30px" viewBox="0 0 30 30" version="1.1" xmlns="http://www.w3.org/2000/svg" xmlns:xlink="http://www.w3.org/1999/xlink">
    <g id="Page-1" stroke="none" stroke-width="1" fill="none" fill-rule="evenodd">
        <g id="搜索（上传中）" transform="translate(-395.000000, -235.000000)" fill="#FFFFFF">
            <g id="上排" transform="translate(360.000000, 160.000000)">
                <g id="回收站" transform="translate(35.000000, 75.000000)">
                    <path d="M17.7831829,23.1287111 C17.3296889,23.1287111 16.9571745,22.675217 16.9571745,22.0921476 L16.9571745,10.7550333 C16.9571745,10.1881756 17.3296889,9.71850936 17.7669712,9.71850936 C18.2204653,9.71850936 18.5930192,10.1719639 18.5930192,10.7550333 L18.5930192,22.1083593 C18.5930192,22.675217 18.236677,23.1287111 17.7831829,23.1287111 Z M28.585863,5.31310461 L23.2897214,5.31310461 L23.2897214,3.19146098 C23.2897214,1.44225266 21.8807621,0.0170816491 20.1315538,0.0170816491 L9.52317754,0.0170816491 C7.77408785,0.0170816491 6.34875867,1.44225266 6.34875867,3.19146098 L6.34875867,5.31310461 L1.05277525,5.31310461 C0.46970581,5.31310461 0,5.78277088 0,6.36587986 C0,6.9489493 0.46970581,7.41865511 1.05277525,7.41865511 L28.585863,7.41865511 C29.1689324,7.41865511 29.6384801,6.9489493 29.6384801,6.36587986 C29.6384801,5.78277088 29.1689324,5.31310461 28.585863,5.31310461 Z M8.47056046,3.19146098 C8.47056046,2.60839154 8.9401081,2.13868573 9.52317754,2.13868573 L20.1315538,2.13868573 C20.7146233,2.13868573 21.1681173,2.60839154 21.1681173,3.19146098 L21.1681173,5.31310461 L8.47056046,5.31310461 L8.47056046,3.19146098 Z M11.7420917,23.1287111 C11.2885976,23.1287111 10.9160437,22.675217 10.9160437,22.0921476 L10.9160437,10.7550333 C10.9160437,10.1881756 11.2885976,9.71850936 11.7258799,9.71850936 C12.179374,9.71850936 12.5518884,10.1719639 12.5518884,10.7550333 L12.5518884,22.1083593 C12.5679815,22.675217 12.1955857,23.1287111 11.7420917,23.1287111 Z" id="Fill-1"></path>
                    <path d="M22.2369462,29.6555617 L7.41778521,29.6555617 C5.66853735,29.6555617 4.24336633,28.2303907 4.24336633,26.4811824 L4.24336633,10.5930344 C4.24336633,10.009965 4.71307214,9.54025919 5.29602296,9.54025919 C5.8790924,9.54025919 6.34875867,10.009965 6.34875867,10.5930344 L6.34875867,26.4811824 C6.34875867,27.0642518 6.81846448,27.5339576 7.40157346,27.5339576 L22.2208926,27.5339576 C22.803962,27.5339576 23.2735097,27.0642518 23.2735097,26.4811824 L23.2735097,10.6254579 C23.2735097,10.0423885 23.7432155,9.57268269 24.3262849,9.57268269 C24.9093544,9.57268269 25.3790602,10.0423885 25.3790602,10.6254579 L25.3790602,26.4811824 C25.4114837,28.2303907 23.9861545,29.6555617 22.2369462,29.6555617 Z" id="Fill-2"></path>
                </g>
            </g>
        </g>
    </g>
</svg>