<?xml version="1.0" encoding="UTF-8" standalone="no"?>
<svg width="12px" height="6px" viewBox="0 0 12 6" version="1.1" xmlns="http://www.w3.org/2000/svg" xmlns:xlink="http://www.w3.org/1999/xlink">
    <g id="Page-1" stroke="none" stroke-width="1" fill="none" fill-rule="evenodd">
        <g id="搜索" transform="translate(-468.000000, -261.000000)" fill="#FFFFFF">
            <g id="人口" transform="translate(210.000000, 94.000000)">
                <g transform="translate(10.000000, 20.000000)" id="cell-1-copy">
                    <g transform="translate(0.000000, 132.000000)">
                        <path d="M251.065747,18.2786731 C250.948122,17.9932159 250.986635,17.6439592 251.19493,17.4144087 L255.917233,12.2045032 C256.174746,11.9205669 256.580685,11.9340633 256.824542,12.2339775 C257.067946,12.5343399 257.056787,13.0078498 256.799274,13.2922983 L252.562145,17.9677761 L256.782556,22.712641 C257.037517,22.9996031 257.04523,23.473113 256.799274,23.7709619 C256.673495,23.9236966 256.505415,24 256.337267,24 C256.176887,24 256.016453,23.9301807 255.891978,23.7904619 L251.212484,18.5296128 C251.20348,18.5191904 251.200077,18.5047014 251.191073,18.4937666 C251.18421,18.4862099 251.176977,18.4807505 251.170128,18.4727455 C251.133756,18.42835 251.1145,18.3739802 251.089698,18.3230526 C251.082863,18.307587 251.071732,18.294651 251.065747,18.2786731 Z" id="el-icon-arrow-down" transform="translate(254.000000, 18.000000) scale(-1, -1) rotate(-90.000000) translate(-254.000000, -18.000000) "></path>
                    </g>
                </g>
            </g>
        </g>
    </g>
</svg>