<?xml version="1.0" encoding="UTF-8" standalone="no"?>
<svg width="70px" height="70px" viewBox="0 0 70 70" version="1.1" xmlns="http://www.w3.org/2000/svg" xmlns:xlink="http://www.w3.org/1999/xlink">
    <defs>
        <polygon id="path-1" points="0.00510338285 0.0709370216 0.00510338285 69.7460622 69.6751252 69.7460622 69.6751252 0.0709370216 0.00510338285 0.0709370216"></polygon>
    </defs>
    <g id="Page-1" stroke="none" stroke-width="1" fill="none" fill-rule="evenodd">
        <g id="搜索" transform="translate(-986.000000, -129.000000)">
            <g transform="translate(520.000000, 94.000000)" id="添加-(2)">
                <g transform="translate(466.000000, 35.000000)">
                    <g id="Group-3">
                        <mask id="mask-2" fill="white">
                            <use xlink:href="#path-1"></use>
                        </mask>
                        <g id="Clip-2"></g>
                        <path d="M62.1080842,0.0709370216 L7.56704092,0.0709370216 C3.39460016,0.0709370216 0,3.46562224 0,7.63797794 L0,62.1791063 C0,66.351462 3.39460016,69.7460622 7.56704092,69.7460622 L62.1080842,69.7460622 C66.280525,69.7460622 69.6751252,66.351462 69.6751252,62.1791063 L69.6751252,7.63797794 C69.6751252,3.46562224 66.280525,0.0709370216 62.1080842,0.0709370216 Z M68.1763467,62.1791063 C68.1763467,65.5251393 65.4542023,68.2472837 62.1080842,68.2472837 L7.56704092,68.2472837 C4.22126313,68.2472837 1.49877849,65.5251393 1.49877849,62.1791063 L1.49877849,7.63797794 C1.49877849,4.29220015 4.22126313,1.56980057 7.56704092,1.56980057 L62.1080842,1.56980057 C65.4542023,1.56980057 68.1763467,4.29220015 68.1763467,7.63797794 L68.1763467,62.1791063 Z" id="Fill-1" fill="#FFFFFF" mask="url(#mask-2)"></path>
                    </g>
                    <path d="M52.8107414,34.159323 L34.9904089,34.159323 L34.9904089,16.4157114 C34.9904089,16.001742 34.6548615,15.6665348 34.2411472,15.6665348 C33.8271778,15.6665348 33.4916304,16.001742 33.4916304,16.4157114 L33.4916304,34.159323 L15.748359,34.159323 C15.3343896,34.159323 14.9988422,34.4945302 14.9988422,34.9084996 C14.9988422,35.3225541 15.3343896,35.6581015 15.748359,35.6581015 L33.4916304,35.6581015 L33.4916304,53.478434 C33.4916304,53.8924034 33.8271778,54.2276106 34.2411472,54.2276106 C34.6552017,54.2276106 34.9904089,53.8920631 34.9904089,53.478434 L34.9904089,35.6581015 L52.8107414,35.6581015 C53.2247108,35.6581015 53.5602582,35.3225541 53.5602582,34.9084996 C53.5602582,34.4945302 53.2247108,34.159323 52.8107414,34.159323 Z" id="Fill-4" fill="#FFFFFF"></path>
                </g>
            </g>
        </g>
    </g>
</svg>