<?xml version="1.0" encoding="UTF-8" standalone="no"?>
<svg width="36px" height="30px" viewBox="0 0 36 30" version="1.1" xmlns="http://www.w3.org/2000/svg" xmlns:xlink="http://www.w3.org/1999/xlink">
    <g id="Page-1" stroke="none" stroke-width="1" fill="none" fill-rule="evenodd">
        <g id="搜索" transform="translate(-1217.000000, -114.000000)" fill="#FFFFFF">
            <g transform="translate(520.000000, 94.000000)" id="Group-4">
                <g transform="translate(676.000000, 10.000000)">
                    <path d="M56.9941769,15.4593798 L55.9983016,25.0005953 L53.7366169,25.0005953 L54.6307652,16.4292738 L33.9633191,16.4292738 C33.9454088,16.4382249 33.9333657,16.4532169 33.9168229,16.4606247 C33.4399938,16.6556088 32.9151245,16.5011031 32.6076935,16.1338874 C32.4696605,16.009542 32.3768004,15.8520819 32.3181728,15.6752204 L30.4376778,12.1450902 L23.3454574,12.1450902 L25.4197013,35.71564 L40.1268941,35.71564 C40.7481086,35.71564 41.2518032,36.1937965 41.2518032,36.7873032 C41.2518032,37.3794871 40.7481086,37.8591869 40.1268941,37.8591869 L24.6321768,37.8591869 C24.6113108,37.8636845 24.5947681,37.8772655 24.5706377,37.8815867 C24.195668,37.9387768 23.8479608,37.797852 23.6018484,37.5591265 C23.5868937,37.5458983 23.5749829,37.5309063 23.5615281,37.5203678 C23.4969451,37.4468629 23.4414496,37.3703596 23.3950857,37.2851257 C23.3620001,37.2162066 23.3365022,37.1455679 23.3125482,37.072063 C23.3065046,37.0436223 23.2855063,37.0225894 23.2823742,36.9941928 L23.2705075,36.8817087 C23.2673754,36.8503578 23.2525531,36.8203738 23.2525531,36.7873032 C23.2525531,36.7723553 23.2585967,36.7604499 23.2585967,36.7497792 L21.0149988,11.2335768 C21.0089552,11.2051802 21.0210424,11.1812371 21.0179103,11.1512531 C21.0149988,11.1242234 21,11.1002803 21,11.0716632 C21,11.0298179 21.0210424,10.9953804 21.0270419,10.9533587 C21.0359971,10.8692713 21.0524075,10.7914452 21.0763174,10.713575 C21.0944482,10.6655124 21.1169905,10.6234907 21.1409445,10.5801021 C21.1874848,10.4977784 21.2369367,10.4242294 21.3013874,10.353767 C21.331385,10.3253263 21.3597944,10.3012509 21.3899685,10.2757205 C21.4694179,10.2097557 21.5534993,10.1529184 21.6510356,10.1108967 C21.6824007,10.0959047 21.7183978,10.083867 21.7558065,10.073549 C21.8204336,10.0509728 21.875885,10.0149479 21.9462029,10.0044535 C21.9927432,9.99704569 22.0378719,10.0120377 22.0842358,10.0104944 C22.0992346,10.0089511 22.1128659,10.0015433 22.1278205,10.0015433 L31.126078,10.0015433 C31.1603547,10.0015433 31.1903523,10.0179022 31.2248053,10.0209888 C31.3359728,10.0299399 31.4469197,10.043565 31.5503231,10.083867 C31.6178618,10.11244 31.6733573,10.1572396 31.7317643,10.1949401 C31.7933035,10.2323319 31.8577542,10.2607726 31.910294,10.308791 C31.9897435,10.383751 32.0481505,10.4765691 32.1007345,10.5696077 C32.1186448,10.5980043 32.1441428,10.6174498 32.1591415,10.6476102 L34.0953526,14.2855505 L50.2485167,14.2855505 L50.2485167,12.1435469 L37.8731059,12.1435469 C37.2522443,12.1435469 36.7483733,11.6638471 36.7483733,11.0716632 C36.7483733,10.4796557 37.2522443,10 37.8731059,10 L51.3734257,10 C51.9942872,10 52.4981582,10.4796557 52.4981582,11.0716632 L52.4981582,14.2855505 L55.8752674,14.2855505 C55.8843991,14.2855505 55.8966628,14.2915914 55.906809,14.2915914 C55.9338509,14.2915914 55.959393,14.2810529 55.9862585,14.2841836 C56.0689724,14.2915914 56.1392902,14.3275722 56.2100933,14.3501484 C56.2535457,14.3635971 56.299689,14.3695939 56.3388182,14.3874961 C56.4304872,14.4266076 56.5054371,14.4820779 56.581975,14.5435892 C56.6164281,14.5719858 56.6552044,14.594562 56.6865695,14.6274562 C56.748241,14.6918777 56.7918698,14.7638834 56.8397777,14.8403426 C56.8668196,14.8866855 56.8983612,14.9287072 56.9162715,14.97968 C56.9462691,15.0530526 56.9520921,15.1310991 56.9655469,15.2105126 C56.974855,15.2601185 56.9972649,15.3050504 56.9972649,15.3589775 C56.9972649,15.3755128 56.9850453,15.3905048 56.9850453,15.4070401 C56.9883098,15.4249423 56.9970885,15.4414776 56.9941769,15.4593798 Z M36.7483733,30.3566625 C36.7483733,29.7629354 37.2522443,29.2849552 37.8731059,29.2849552 L45.7493659,29.2849552 L45.7493659,21.786708 C45.7493659,21.1945241 46.2532369,20.7150007 46.8742749,20.7150007 C47.4951364,20.7150007 47.9990074,21.1945241 47.9990074,21.786708 L47.9990074,29.2849552 L55.8752674,29.2849552 C56.4961731,29.2849552 57,29.7629354 57,30.3566625 C57,30.948626 56.4961731,31.4286785 55.8752674,31.4286785 L47.9990074,31.4286785 L47.9990074,38.9279399 C47.9990074,39.5216671 47.4951364,40 46.8742749,40 C46.2532369,40 45.7493659,39.5216671 45.7493659,38.9279399 L45.7493659,31.4285021 L37.8731059,31.4285021 C37.2522443,31.4285021 36.7483733,30.948626 36.7483733,30.3566625 Z" id="添加企业档案"></path>
                </g>
            </g>
        </g>
    </g>
</svg>