<?xml version="1.0" encoding="UTF-8" standalone="no"?>
<svg width="32px" height="32px" viewBox="0 0 32 32" version="1.1" xmlns="http://www.w3.org/2000/svg" xmlns:xlink="http://www.w3.org/1999/xlink">
    <g id="Page-1" stroke="none" stroke-width="1" fill="none" fill-rule="evenodd">
        <g id="搜索" transform="translate(-1220.000000, -183.000000)" fill="#187CE3">
            <g transform="translate(520.000000, 94.000000)" id="Group-3">
                <g transform="translate(676.000000, 80.000000)">
                    <g id="回收站" transform="translate(24.000000, 9.000000)">
                        <path d="M18.8323098,24.4931997 C18.3520617,24.4931997 17.9575706,24.0129516 17.9575706,23.3954837 L17.9575706,11.3895313 C17.9575706,10.7892316 18.3520617,10.2918572 18.8151416,10.2918572 C19.2953898,10.2918572 19.6899227,10.7720635 19.6899227,11.3895313 L19.6899227,23.4126519 C19.6899227,24.0129516 19.312558,24.4931997 18.8323098,24.4931997 Z M30.2722988,5.6265536 L24.663709,5.6265536 L24.663709,3.37974266 C24.663709,1.52733901 23.1716275,0.0180893887 21.3192239,0.0180893887 L10.0850017,0.0180893887 C8.23272365,0.0180893887 6.72330653,1.52733901 6.72330653,3.37974266 L6.72330653,5.6265536 L1.1148842,5.6265536 C0.497416315,5.6265536 0,6.12392804 0,6.7414378 C0,7.35890568 0.497416315,7.85632199 1.1148842,7.85632199 L30.2722988,7.85632199 C30.8897667,7.85632199 31.3870155,7.35890568 31.3870155,6.7414378 C31.3870155,6.12392804 30.8897667,5.6265536 30.2722988,5.6265536 Z M8.97028497,3.37974266 C8.97028497,2.76227477 9.46753379,2.26485846 10.0850017,2.26485846 L21.3192239,2.26485846 C21.9366918,2.26485846 22.4169399,2.76227477 22.4169399,3.37974266 L22.4169399,5.6265536 L8.97028497,5.6265536 L8.97028497,3.37974266 Z M12.4348216,24.4931997 C11.9545735,24.4931997 11.5600406,24.0129516 11.5600406,23.3954837 L11.5600406,11.3895313 C11.5600406,10.7892316 11.9545735,10.2918572 12.4176535,10.2918572 C12.8979016,10.2918572 13.2923927,10.7720635 13.2923927,11.3895313 L13.2923927,23.4126519 C13.3094352,24.0129516 12.9150698,24.4931997 12.4348216,24.4931997 Z" id="Fill-1"></path>
                        <path d="M23.5488248,31.4051049 L7.85540077,31.4051049 C6.00295525,31.4051049 4.49370563,29.8958553 4.49370563,28.0434516 L4.49370563,11.2179753 C4.49370563,10.6005074 4.99112195,10.1030911 5.60846421,10.1030911 C6.22593209,10.1030911 6.72330653,10.6005074 6.72330653,11.2179753 L6.72330653,28.0434516 C6.72330653,28.6609195 7.22072285,29.1583358 7.8382326,29.1583358 L23.5318241,29.1583358 C24.149292,29.1583358 24.6465408,28.6609195 24.6465408,28.0434516 L24.6465408,11.2523116 C24.6465408,10.6348437 25.1439571,10.1374274 25.761425,10.1374274 C26.3788929,10.1374274 26.8763092,10.6348437 26.8763092,11.2523116 L26.8763092,28.0434516 C26.9106455,29.8958553 25.4012284,31.4051049 23.5488248,31.4051049 Z" id="Fill-2"></path>
                    </g>
                </g>
            </g>
        </g>
    </g>
</svg>