<?xml version="1.0" encoding="UTF-8" standalone="no"?>
<svg width="20px" height="20px" viewBox="0 0 20 20" version="1.1" xmlns="http://www.w3.org/2000/svg" xmlns:xlink="http://www.w3.org/1999/xlink">
    <g id="Page-1" stroke="none" stroke-width="1" fill="none" fill-rule="evenodd">
        <g id="搜索" transform="translate(-638.000000, -126.000000)" fill="#999999">
            <g transform="translate(520.000000, 94.000000)" id="Fill-1">
                <g transform="translate(108.000000, 20.000000)">
                    <g transform="translate(10.000000, 12.000000)">
                        <path d="M20.028955,19.1212786 L14.8081142,13.9836163 C16.1751787,12.4981813 17.015126,10.5340111 17.015126,8.3720202 C17.015126,3.7482851 13.2061446,0 8.50750651,0 C3.80895314,0 0,3.7482851 0,8.3720202 C0,12.9958683 3.80895314,16.7440404 8.50750651,16.7440404 C10.5376546,16.7440404 12.3996664,16.0420084 13.8621672,14.874318 L19.1034002,20.0320336 C19.3590363,20.2834614 19.7734318,20.2834614 20.028955,20.0320336 C20.2845629,19.7805775 20.2845629,19.3728194 20.028955,19.1212786 Z M8.50761949,15.456172 C4.53182923,15.456172 1.30893841,12.2844592 1.30893841,8.3720202 C1.30893841,4.4596659 4.53182923,1.28806611 8.50761949,1.28806611 C12.4832685,1.28806611 15.7061876,4.4596659 15.7061876,8.3720202 C15.7061876,12.2844592 12.4832685,15.456172 8.50761949,15.456172 Z"></path>
                    </g>
                </g>
            </g>
        </g>
    </g>
</svg>