<?xml version="1.0" encoding="UTF-8" standalone="no"?>
<svg width="20px" height="20px" viewBox="0 0 20 20" version="1.1" xmlns="http://www.w3.org/2000/svg" xmlns:xlink="http://www.w3.org/1999/xlink">
    <defs>
        <polygon id="path-1" points="0.00164778269 0.0139237637 0.00164778269 19.6909757 19.6770519 19.6909757 19.6770519 0.0139237637"></polygon>
    </defs>
    <g id="Page-1" stroke="none" stroke-width="1" fill="none" fill-rule="evenodd">
        <g id="搜索（-人口栏编辑状态）" transform="translate(-470.000000, -124.000000)">
            <g id="人口" transform="translate(210.000000, 94.000000)">
                <g transform="translate(10.000000, 20.000000)" id="常住人口">
                    <g>
                        <g id="添加" transform="translate(250.000000, 10.000000)">
                            <mask id="mask-2" fill="white">
                                <use xlink:href="#path-1"></use>
                            </mask>
                            <g id="Clip-2"></g>
                            <path d="M10.8930794,10.9070032 L18.6225259,10.9070032 C19.2049347,10.9070032 19.6770519,10.4348585 19.6770519,9.85244972 C19.6770519,9.27004093 19.2049347,8.79792373 18.6225259,8.79792373 L10.8930794,8.79792373 L10.8930794,1.06847722 C10.8930794,0.48606843 10.4209347,0.0139237637 9.83852596,0.0139237637 C9.25611717,0.0139237637 8.78399996,0.48606843 8.78399996,1.06847722 L8.78399996,8.79792373 L1.054526,8.79792373 C0.472117204,8.79792373 0,9.27004093 0,9.85244972 C0,10.4348585 0.472117204,10.9070032 1.054526,10.9070032 L8.78399996,10.9070032 L8.78399996,18.6364497 C8.78399996,19.2188585 9.25611717,19.6909757 9.83852596,19.6909757 C10.4209347,19.6909757 10.8930794,19.2188585 10.8930794,18.6364497 L10.8930794,10.9070032 Z" id="Fill-1" fill="#FFFFFF" mask="url(#mask-2)"></path>
                        </g>
                    </g>
                </g>
            </g>
        </g>
    </g>
</svg>