<?xml version="1.0" encoding="UTF-8" standalone="no"?>
<svg width="16px" height="18px" viewBox="0 0 16 18" version="1.1" xmlns="http://www.w3.org/2000/svg" xmlns:xlink="http://www.w3.org/1999/xlink">
    <g id="Page-1" stroke="none" stroke-width="1" fill="none" fill-rule="evenodd">
        <g id="搜索（-人口栏编辑状态）" transform="translate(-446.000000, -472.000000)" fill="#F6D536">
            <g id="人口" transform="translate(210.000000, 94.000000)">
                <g transform="translate(10.000000, 20.000000)" id="Group-2-Copy-5">
                    <g transform="translate(113.000000, 354.000000)">
                        <path d="M128.001208,16.705961 L127.001774,16.705961 L127.001774,11.4119977 C127.001774,8.25912679 124.830135,5.64897744 121.983898,5.15151422 C121.986591,5.1198788 122.000196,5.09129591 122.000196,5.05897935 C122.000196,4.47420337 121.553054,4 121.000738,4 C120.448351,4 120.000565,4.47420337 120.000565,5.05897935 C120.000565,5.09129591 120.015458,5.1198788 120.018341,5.15151422 C117.173486,5.64827107 115.000369,8.25834473 115.000369,11.4119977 L115.000369,16.705961 L114.000197,16.705961 C113.447881,16.705961 113,17.1793571 113,17.765016 C113,18.349792 113.447881,18.8231881 114.000197,18.8231881 L128.000565,18.8231881 C128.552952,18.8231881 128.999999,18.349792 128.999999,17.765016 C129.000738,17.1793571 128.553524,16.705961 128.001208,16.705961 Z M121.000738,22 C122.106013,22 123.001012,21.0516942 123.001012,19.8828486 L119.001012,19.8828486 C119.001012,21.0516942 119.896035,22 121.000738,22 Z" id="预警-(1)"></path>
                    </g>
                </g>
            </g>
        </g>
    </g>
</svg>